<?xml version="1.0" encoding="UTF-8"?>
<svg id="Layer_1" xmlns="http://www.w3.org/2000/svg" xmlns:xlink="http://www.w3.org/1999/xlink" version="1.1" viewBox="0 0 247.5 223.47">
  <!-- Generator: Adobe Illustrator 29.5.1, SVG Export Plug-In . SVG Version: 2.1.0 Build 141)  -->
  <defs>
    <style>
      .st0, .st1, .st2, .st3, .st4, .st5, .st6, .st7 {
        fill: none;
      }

      .st1, .st2, .st3, .st4, .st5, .st6, .st7 {
        stroke: #231f20;
      }

      .st1, .st2, .st3, .st5, .st6, .st7 {
        stroke-linejoin: round;
      }

      .st1, .st2, .st3, .st7 {
        stroke-linecap: round;
      }

      .st1, .st3, .st4, .st7 {
        stroke-width: .75px;
      }

      .st2 {
        stroke-width: .8px;
      }

      .st8, .st9, .st10 {
        fill: #231f20;
      }

      .st3 {
        stroke-dasharray: 5.9 2.21;
      }

      .st11 {
        font-family: MyriadPro-Regular, 'Myriad Pro';
        font-size: 12px;
      }

      .st9 {
        font-size: 6.5px;
      }

      .st9, .st12, .st10 {
        isolation: isolate;
      }

      .st9, .st10 {
        font-family: Helvetica, Helvetica;
      }

      .st4 {
        stroke-miterlimit: 10;
      }

      .st13 {
        clip-path: url(#clippath-1);
      }

      .st14 {
        clip-path: url(#clippath-3);
      }

      .st15 {
        clip-path: url(#clippath-2);
      }

      .st5 {
        stroke-width: 1.5px;
      }

      .st6 {
        stroke-width: 1.25px;
      }

      .st16 {
        fill: #3371af;
      }

      .st7 {
        stroke-dasharray: 0 1.47;
      }

      .st10 {
        font-size: 8px;
      }

      .st17 {
        clip-path: url(#clippath);
      }
    </style>
    <clipPath id="clippath">
      <rect class="st0" x="4.38" y="2.22" width="313.53" height="218.45"/>
    </clipPath>
    <clipPath id="clippath-1">
      <rect class="st0" x="4.38" y="2.22" width="313.53" height="218.45"/>
    </clipPath>
    <clipPath id="clippath-2">
      <rect class="st0" x="4.38" y="2.22" width="313.53" height="218.45"/>
    </clipPath>
    <clipPath id="clippath-3">
      <rect class="st0" width="320.57" height="223.47"/>
    </clipPath>
  </defs>
  <g class="st17">
    <line class="st5" x1="4.73" y1="191.99" x2="244.5" y2="191.99"/>
  </g>
  <rect class="st16" x="188.87" y="100.82" width="5.15" height="91.23"/>
  <g class="st13">
    <path class="st6" d="M80.29,30H4.73M80.65,30.25h2.7c86.28,0,116.92.67,161.15,36.79M188.87,100.41c11.99-9.88,29.69-6.96,55.63,10.61"/>
  </g>
  <line class="st7" x1="101.93" y1="100.2" x2="4.27" y2="100.2"/>
  <path class="st1" d="M28.2,184.95l3.52,7.04,3.57-7.04M35.29,107.3l-3.57-7.04-3.52,7.04M31.72,100.2v91.79M28.2,93.16l3.52,7.09,3.57-7.09M35.29,37.09l-3.57-7.04-3.52,7.04M31.72,30v70.21"/>
  <line class="st7" x1="96.52" y1="30" x2="244.5" y2="30"/>
  <path class="st1" d="M182.75,138.27l5.61-5.66-7.86-1.07M172.08,138.01l16.22-5.41M223.47,109.3l-3.57-7.04-3.52,7.04M219.89,123.84v-21.64"/>
  <g class="st15">
    <line class="st3" x1="4.73" y1="19.23" x2="101.93" y2="19.23"/>
  </g>
  <path class="st1" d="M28.2,12.19l3.52,7.04,3.57-7.04M31.72,3v16.23"/>
  <g class="st12">
    <g class="st12">
      <g class="st12">
        <g class="st12">
          <text class="st10" transform="translate(35.97 67.04)"><tspan x="0" y="0">h</tspan></text>
        </g>
      </g>
    </g>
  </g>
  <g class="st12">
    <g class="st12">
      <g class="st12">
        <g class="st12">
          <text class="st9" transform="translate(40.42 69.54)"><tspan x="0" y="0">0</tspan></text>
        </g>
      </g>
    </g>
  </g>
  <g class="st12">
    <g class="st12">
      <g class="st12">
        <g class="st12">
          <text class="st10" transform="translate(35.97 142.66)"><tspan x="0" y="0">p</tspan></text>
        </g>
      </g>
    </g>
  </g>
  <g class="st12">
    <g class="st12">
      <g class="st12">
        <g class="st12">
          <text class="st10" transform="translate(210.25 135.83)"><tspan x="0" y="0">Nappe</tspan></text>
        </g>
      </g>
    </g>
  </g>
  <g class="st12">
    <g class="st12">
      <g class="st12">
        <g class="st12">
          <text class="st10" transform="translate(157.04 150.06)"><tspan x="0" y="0">Weir</tspan></text>
        </g>
      </g>
    </g>
  </g>
  <g class="st12">
    <g class="st12">
      <g class="st12">
        <g class="st12">
          <text class="st10" transform="translate(157.04 159.55)"><tspan x="0" y="0">plate</tspan></text>
        </g>
      </g>
    </g>
  </g>
  <g class="st12">
    <g class="st12">
      <g class="st12">
        <g class="st12">
          <text class="st10" transform="translate(14.63 209.45)"><tspan x="0" y="0">Approach</tspan></text>
        </g>
      </g>
    </g>
  </g>
  <g class="st14">
    <g class="st12">
      <g class="st12">
        <g class="st12">
          <g class="st12">
            <text class="st10" transform="translate(19.07 218.95)"><tspan x="0" y="0">section</tspan></text>
          </g>
        </g>
      </g>
    </g>
  </g>
  <g class="st12">
    <g class="st12">
      <g class="st12">
        <g class="st12">
          <text class="st10" transform="translate(38.25 12.67)"><tspan x="0" y="0">V</tspan></text>
        </g>
      </g>
    </g>
  </g>
  <g class="st12">
    <g class="st12">
      <g class="st12">
        <g class="st12">
          <text class="st9" transform="translate(43.59 15.17)"><tspan x="0" y="0">0</tspan></text>
        </g>
      </g>
    </g>
  </g>
  <g class="st12">
    <g class="st12">
      <g class="st12">
        <g class="st12">
          <text class="st9" transform="translate(47.2 9.67)"><tspan x="0" y="0">2</tspan></text>
        </g>
      </g>
    </g>
  </g>
  <g class="st12">
    <g class="st12">
      <g class="st12">
        <g class="st12">
          <text class="st10" transform="translate(50.81 12.67)"><tspan x="0" y="0">/2</tspan></text>
        </g>
      </g>
    </g>
  </g>
  <g class="st12">
    <g class="st12">
      <g class="st12">
        <g class="st12">
          <text class="st10" transform="translate(57.49 12.67)"><tspan x="0" y="0">g</tspan></text>
        </g>
      </g>
    </g>
  </g>
  <line class="st2" x1="6.03" y1="99.24" x2="9.6" y2="91.23"/>
  <line class="st2" x1="2.51" y1="91.23" x2="6.03" y2="99.24"/>
  <line class="st2" x1="6.03" y1="19.96" x2="2.51" y2="27.91"/>
  <line class="st2" x1="9.6" y1="27.91" x2="6.03" y2="19.96"/>
  <line class="st2" x1="6.03" y1="19.9" x2="6.03" y2="99.19"/>
  <g class="st12">
    <g class="st12">
      <g class="st12">
        <g class="st12">
          <text class="st10" transform="translate(8.03 63.97)"><tspan x="0" y="0">H</tspan></text>
        </g>
      </g>
    </g>
  </g>
  <g class="st12">
    <g class="st12">
      <g class="st12">
        <g class="st12">
          <text class="st10" transform="translate(177.64 209.75)"><tspan x="0" y="0">Critical</tspan></text>
        </g>
      </g>
    </g>
  </g>
  <g class="st12">
    <g class="st12">
      <g class="st12">
        <g class="st12">
          <text class="st10" transform="translate(177.08 219.25)"><tspan x="0" y="0">section</tspan></text>
        </g>
      </g>
    </g>
  </g>
  <g>
    <line class="st4" x1="165.01" y1="68.77" x2="196.62" y2="68.77"/>
    <polygon class="st8" points="195.14 70.95 203.27 68.77 195.14 66.59 195.14 70.95"/>
  </g>
  <text class="st11" transform="translate(167.3 62.3)"><tspan x="0" y="0">Q</tspan></text>
</svg>